<svg width="256" height="256" viewBox="0 0 256 256" fill="none" xmlns="http://www.w3.org/2000/svg">
<rect width="256" height="256" rx="60" fill="url(#paint0_linear)"/>
<path d="M128 50C140.15 50 150 59.85 150 72C150 84.15 140.15 94 128 94C115.85 94 106 84.15 106 72C106 59.85 115.85 50 128 50Z" fill="white"/>
<path d="M168.3 118.8C154.5 114.3 141.4 108 128 108C114.6 108 101.5 114.3 87.7 118.8C80.2 121.2 73.1 124.9 66.8 129.5C62.1 132.9 58.7 138.2 59.1 144.1C59.6 150.3 64.9 154.6 70.8 153.2C85.5 149.6 101.5 143.1 118.4 135.2L98.6 182C96.1 187.9 92.5 193.3 87.9 197.9C83.8 202.1 79.1 205.8 73.8 208.8C68.9 211.5 68.3 218.4 72.8 221.6C77.4 224.9 83.9 223.7 87.4 219.2C93.4 211.4 99.4 203.2 105.1 194.8C111.4 185.3 115.9 174.6 118.2 163.4L128 119.5L137.8 163.4C140.1 174.6 144.6 185.3 150.9 194.8C156.6 203.2 162.6 211.4 168.6 219.2C172.1 223.7 178.6 224.9 183.2 221.6C187.7 218.4 187.1 211.5 182.2 208.8C176.9 205.8 172.2 202.1 168.1 197.9C163.5 193.3 159.9 187.9 157.4 182L137.6 135.2C154.5 143.1 170.5 149.6 185.2 153.2C191.1 154.6 196.4 150.3 196.9 144.1C197.3 138.2 193.9 132.9 189.2 129.5C182.9 124.9 175.8 121.2 168.3 118.8Z" fill="white"/>
<defs>
<linearGradient id="paint0_linear" x1="0" y1="0" x2="256" y2="256" gradientUnits="userSpaceOnUse">
<stop stop-color="#512BD4"/>
<stop offset="1" stop-color="#3B82F6"/>
</linearGradient>
</defs>
</svg>
